<mxfile host="app.diagrams.net" modified="2021-11-09T10:44:35.115Z" agent="5.0 (Macintosh; Intel Mac OS X 10_14_6) AppleWebKit/537.36 (KHTML, like Gecko) Chrome/95.0.4638.69 Safari/537.36" etag="-pxFDpPogYpoQWTP-wU5" version="15.7.0" type="github">
  <diagram id="fQsjuusSUMie_eY00KBy" name="Page-1">
    <mxGraphModel dx="1186" dy="693" grid="1" gridSize="10" guides="1" tooltips="1" connect="1" arrows="1" fold="1" page="1" pageScale="1" pageWidth="3300" pageHeight="4681" math="0" shadow="0">
      <root>
        <mxCell id="0" />
        <mxCell id="1" parent="0" />
        <mxCell id="RPorrHLqXQpMC3Zhs603-1" value="" style="shape=image;html=1;verticalAlign=top;verticalLabelPosition=bottom;labelBackgroundColor=#ffffff;imageAspect=0;aspect=fixed;image=https://cdn3.iconfinder.com/data/icons/logos-brands-3/24/logo_brand_brands_logos_excel-128.png" vertex="1" parent="1">
          <mxGeometry x="245" y="198" width="60" height="60" as="geometry" />
        </mxCell>
        <mxCell id="RPorrHLqXQpMC3Zhs603-4" value="" style="shape=mxgraph.signs.healthcare.first_aid;html=1;pointerEvents=1;fillColor=#000000;strokeColor=none;verticalLabelPosition=bottom;verticalAlign=top;align=center;" vertex="1" parent="1">
          <mxGeometry x="235" y="90" width="70" height="58" as="geometry" />
        </mxCell>
        <mxCell id="RPorrHLqXQpMC3Zhs603-5" value="" style="endArrow=classic;html=1;rounded=0;exitX=0.5;exitY=1;exitDx=0;exitDy=0;exitPerimeter=0;entryX=0.4;entryY=-0.017;entryDx=0;entryDy=0;entryPerimeter=0;" edge="1" parent="1" source="RPorrHLqXQpMC3Zhs603-4" target="RPorrHLqXQpMC3Zhs603-1">
          <mxGeometry width="50" height="50" relative="1" as="geometry">
            <mxPoint x="715" y="338" as="sourcePoint" />
            <mxPoint x="765" y="288" as="targetPoint" />
          </mxGeometry>
        </mxCell>
        <mxCell id="RPorrHLqXQpMC3Zhs603-6" value="" style="shape=cylinder3;whiteSpace=wrap;html=1;boundedLbl=1;backgroundOutline=1;size=15;fillColor=none;" vertex="1" parent="1">
          <mxGeometry x="405" y="178" width="60" height="80" as="geometry" />
        </mxCell>
        <mxCell id="RPorrHLqXQpMC3Zhs603-7" value="" style="shape=datastore;whiteSpace=wrap;html=1;fillColor=none;" vertex="1" parent="1">
          <mxGeometry x="565" y="188" width="60" height="60" as="geometry" />
        </mxCell>
        <mxCell id="RPorrHLqXQpMC3Zhs603-8" value="" style="html=1;verticalLabelPosition=bottom;align=center;labelBackgroundColor=#ffffff;verticalAlign=top;strokeWidth=2;strokeColor=#0080F0;shadow=0;dashed=0;shape=mxgraph.ios7.icons.mail;fillColor=none;" vertex="1" parent="1">
          <mxGeometry x="405" y="328" width="50" height="30" as="geometry" />
        </mxCell>
        <mxCell id="RPorrHLqXQpMC3Zhs603-9" value="" style="endArrow=classic;html=1;rounded=0;exitX=1;exitY=0.5;exitDx=0;exitDy=0;" edge="1" parent="1" source="RPorrHLqXQpMC3Zhs603-1">
          <mxGeometry width="50" height="50" relative="1" as="geometry">
            <mxPoint x="280" y="158" as="sourcePoint" />
            <mxPoint x="405" y="228" as="targetPoint" />
          </mxGeometry>
        </mxCell>
        <mxCell id="RPorrHLqXQpMC3Zhs603-10" value="" style="endArrow=classic;html=1;rounded=0;exitX=1;exitY=0.5;exitDx=0;exitDy=0;" edge="1" parent="1">
          <mxGeometry width="50" height="50" relative="1" as="geometry">
            <mxPoint x="465" y="227.5" as="sourcePoint" />
            <mxPoint x="565" y="227.5" as="targetPoint" />
          </mxGeometry>
        </mxCell>
        <mxCell id="RPorrHLqXQpMC3Zhs603-11" value="" style="endArrow=classic;html=1;rounded=0;exitX=0.5;exitY=1;exitDx=0;exitDy=0;exitPerimeter=0;entryX=0.633;entryY=-0.121;entryDx=0;entryDy=0;entryPerimeter=0;" edge="1" parent="1" source="RPorrHLqXQpMC3Zhs603-6" target="RPorrHLqXQpMC3Zhs603-8">
          <mxGeometry width="50" height="50" relative="1" as="geometry">
            <mxPoint x="325" y="248" as="sourcePoint" />
            <mxPoint x="425" y="248" as="targetPoint" />
          </mxGeometry>
        </mxCell>
        <mxCell id="RPorrHLqXQpMC3Zhs603-12" value="trigger &lt;br&gt;emails to practitioners &lt;br&gt;+ default password" style="text;html=1;align=center;verticalAlign=middle;resizable=0;points=[];autosize=1;strokeColor=none;fillColor=none;" vertex="1" parent="1">
          <mxGeometry x="305" y="278" width="130" height="50" as="geometry" />
        </mxCell>
        <mxCell id="RPorrHLqXQpMC3Zhs603-13" value="List of practitioner details&lt;br&gt;" style="text;html=1;align=center;verticalAlign=middle;resizable=0;points=[];autosize=1;strokeColor=none;fillColor=none;" vertex="1" parent="1">
          <mxGeometry x="160" y="268" width="150" height="20" as="geometry" />
        </mxCell>
        <mxCell id="RPorrHLqXQpMC3Zhs603-14" value="EMR" style="text;html=1;align=center;verticalAlign=middle;resizable=0;points=[];autosize=1;strokeColor=none;fillColor=none;" vertex="1" parent="1">
          <mxGeometry x="325" y="98" width="40" height="20" as="geometry" />
        </mxCell>
        <mxCell id="RPorrHLqXQpMC3Zhs603-15" value="Cloud Storage" style="text;html=1;align=center;verticalAlign=middle;resizable=0;points=[];autosize=1;strokeColor=none;fillColor=none;" vertex="1" parent="1">
          <mxGeometry x="385" y="148" width="90" height="20" as="geometry" />
        </mxCell>
        <mxCell id="RPorrHLqXQpMC3Zhs603-16" value="Firebase / Identity &lt;br&gt;Platform" style="text;html=1;align=center;verticalAlign=middle;resizable=0;points=[];autosize=1;strokeColor=none;fillColor=none;" vertex="1" parent="1">
          <mxGeometry x="540" y="148" width="110" height="30" as="geometry" />
        </mxCell>
        <mxCell id="RPorrHLqXQpMC3Zhs603-17" value="inserts data into &lt;br&gt;Firebase RealTime &lt;br&gt;Database" style="text;html=1;align=left;verticalAlign=middle;resizable=0;points=[];autosize=1;strokeColor=none;fillColor=none;" vertex="1" parent="1">
          <mxGeometry x="465" y="248" width="120" height="50" as="geometry" />
        </mxCell>
        <mxCell id="RPorrHLqXQpMC3Zhs603-18" value="Practitioner" style="shape=umlActor;verticalLabelPosition=bottom;verticalAlign=top;html=1;outlineConnect=0;fillColor=none;" vertex="1" parent="1">
          <mxGeometry x="265" y="468" width="30" height="60" as="geometry" />
        </mxCell>
        <mxCell id="RPorrHLqXQpMC3Zhs603-19" value="" style="html=1;verticalLabelPosition=bottom;align=center;labelBackgroundColor=#ffffff;verticalAlign=top;strokeWidth=2;strokeColor=#0080F0;shadow=0;dashed=0;shape=mxgraph.ios7.icons.mail;fillColor=none;" vertex="1" parent="1">
          <mxGeometry x="365" y="488" width="50" height="30" as="geometry" />
        </mxCell>
        <mxCell id="RPorrHLqXQpMC3Zhs603-20" value="" style="endArrow=classic;html=1;rounded=0;exitX=1;exitY=0.5;exitDx=0;exitDy=0;" edge="1" parent="1">
          <mxGeometry width="50" height="50" relative="1" as="geometry">
            <mxPoint x="305" y="502.5" as="sourcePoint" />
            <mxPoint x="350" y="502.5" as="targetPoint" />
          </mxGeometry>
        </mxCell>
        <mxCell id="RPorrHLqXQpMC3Zhs603-21" value="click" style="text;html=1;align=center;verticalAlign=middle;resizable=0;points=[];autosize=1;strokeColor=none;fillColor=none;" vertex="1" parent="1">
          <mxGeometry x="305" y="508" width="40" height="20" as="geometry" />
        </mxCell>
        <mxCell id="RPorrHLqXQpMC3Zhs603-22" value="" style="endArrow=classic;startArrow=classic;html=1;rounded=0;" edge="1" parent="1">
          <mxGeometry width="50" height="50" relative="1" as="geometry">
            <mxPoint x="415" y="478" as="sourcePoint" />
            <mxPoint x="595" y="258" as="targetPoint" />
          </mxGeometry>
        </mxCell>
        <mxCell id="RPorrHLqXQpMC3Zhs603-23" value="" style="endArrow=classic;html=1;rounded=0;" edge="1" parent="1">
          <mxGeometry width="50" height="50" relative="1" as="geometry">
            <mxPoint x="425" y="503" as="sourcePoint" />
            <mxPoint x="595" y="503" as="targetPoint" />
          </mxGeometry>
        </mxCell>
        <mxCell id="RPorrHLqXQpMC3Zhs603-24" value="" style="strokeColor=#dddddd;shadow=1;strokeWidth=1;rounded=1;absoluteArcSize=1;arcSize=2;fillColor=none;" vertex="1" parent="1">
          <mxGeometry x="615" y="458" width="100" height="60" as="geometry" />
        </mxCell>
        <mxCell id="RPorrHLqXQpMC3Zhs603-25" value="Firebase" style="sketch=0;dashed=0;connectable=0;html=1;fillColor=#5184F3;strokeColor=none;shape=mxgraph.gcp2.firebase;part=1;labelPosition=right;verticalLabelPosition=middle;align=left;verticalAlign=middle;spacingLeft=5;fontColor=#999999;fontSize=12;" vertex="1" parent="RPorrHLqXQpMC3Zhs603-24">
          <mxGeometry width="32.4" height="45" relative="1" as="geometry">
            <mxPoint x="5" y="7" as="offset" />
          </mxGeometry>
        </mxCell>
        <mxCell id="RPorrHLqXQpMC3Zhs603-26" value="Generate a OTP.&lt;br&gt;1. update Firebase&lt;br&gt;2. send the Latest OTP to &lt;br&gt;Practitioner over a mail" style="text;html=1;align=left;verticalAlign=middle;resizable=0;points=[];autosize=1;strokeColor=none;fillColor=none;" vertex="1" parent="1">
          <mxGeometry x="435" y="508" width="150" height="60" as="geometry" />
        </mxCell>
        <mxCell id="RPorrHLqXQpMC3Zhs603-27" value="" style="endArrow=classic;html=1;rounded=0;entryX=0;entryY=0;entryDx=0;entryDy=0;" edge="1" parent="1" target="RPorrHLqXQpMC3Zhs603-28">
          <mxGeometry width="50" height="50" relative="1" as="geometry">
            <mxPoint x="315" y="548" as="sourcePoint" />
            <mxPoint x="365" y="598" as="targetPoint" />
          </mxGeometry>
        </mxCell>
        <mxCell id="RPorrHLqXQpMC3Zhs603-28" value="" style="shape=image;html=1;verticalAlign=top;verticalLabelPosition=bottom;labelBackgroundColor=#ffffff;imageAspect=0;aspect=fixed;image=https://cdn1.iconfinder.com/data/icons/business-startup-14/60/Development-128.png;fillColor=none;" vertex="1" parent="1">
          <mxGeometry x="375" y="630" width="70" height="70" as="geometry" />
        </mxCell>
        <mxCell id="RPorrHLqXQpMC3Zhs603-29" value="Redirected to Webpage with filled &lt;br&gt;Email and asking for OTP" style="text;html=1;align=left;verticalAlign=middle;resizable=0;points=[];autosize=1;strokeColor=none;fillColor=none;" vertex="1" parent="1">
          <mxGeometry x="140" y="573" width="190" height="30" as="geometry" />
        </mxCell>
        <mxCell id="RPorrHLqXQpMC3Zhs603-30" value="" style="endArrow=classic;html=1;rounded=0;exitX=1;exitY=0.5;exitDx=0;exitDy=0;entryX=-0.072;entryY=0.609;entryDx=0;entryDy=0;entryPerimeter=0;" edge="1" parent="1" source="RPorrHLqXQpMC3Zhs603-28" target="RPorrHLqXQpMC3Zhs603-31">
          <mxGeometry width="50" height="50" relative="1" as="geometry">
            <mxPoint x="495" y="640" as="sourcePoint" />
            <mxPoint x="595" y="665" as="targetPoint" />
          </mxGeometry>
        </mxCell>
        <mxCell id="RPorrHLqXQpMC3Zhs603-31" value="" style="shape=image;html=1;verticalAlign=top;verticalLabelPosition=bottom;labelBackgroundColor=#ffffff;imageAspect=0;aspect=fixed;image=https://cdn4.iconfinder.com/data/icons/online-marketing-hand-drawn-vol-4/52/web__globe__data__technology__list__menu__webpage-128.png;fillColor=none;" vertex="1" parent="1">
          <mxGeometry x="655" y="620" width="69" height="69" as="geometry" />
        </mxCell>
        <mxCell id="RPorrHLqXQpMC3Zhs603-32" value="Connecting to Gardenia" style="text;html=1;align=center;verticalAlign=middle;resizable=0;points=[];autosize=1;strokeColor=none;fillColor=none;" vertex="1" parent="1">
          <mxGeometry x="455" y="638" width="140" height="20" as="geometry" />
        </mxCell>
        <mxCell id="RPorrHLqXQpMC3Zhs603-34" value="Verify the OTP and &lt;br&gt;establish the session" style="text;html=1;align=center;verticalAlign=middle;resizable=0;points=[];autosize=1;strokeColor=none;fillColor=none;" vertex="1" parent="1">
          <mxGeometry x="530" y="588" width="130" height="30" as="geometry" />
        </mxCell>
        <mxCell id="RPorrHLqXQpMC3Zhs603-36" value="" style="endArrow=classic;startArrow=classic;html=1;rounded=0;verticalAlign=middle;" edge="1" parent="1">
          <mxGeometry width="50" height="50" relative="1" as="geometry">
            <mxPoint x="435" y="653" as="sourcePoint" />
            <mxPoint x="635" y="528" as="targetPoint" />
          </mxGeometry>
        </mxCell>
        <mxCell id="RPorrHLqXQpMC3Zhs603-37" value="1" style="text;html=1;align=center;verticalAlign=middle;resizable=0;points=[];autosize=1;strokeColor=none;fillColor=none;" vertex="1" parent="1">
          <mxGeometry x="235" y="158" width="20" height="20" as="geometry" />
        </mxCell>
        <mxCell id="RPorrHLqXQpMC3Zhs603-38" value="2" style="text;html=1;align=center;verticalAlign=middle;resizable=0;points=[];autosize=1;strokeColor=none;fillColor=none;" vertex="1" parent="1">
          <mxGeometry x="335" y="208" width="20" height="20" as="geometry" />
        </mxCell>
        <mxCell id="RPorrHLqXQpMC3Zhs603-39" value="2a" style="text;html=1;align=center;verticalAlign=middle;resizable=0;points=[];autosize=1;strokeColor=none;fillColor=none;" vertex="1" parent="1">
          <mxGeometry x="400" y="268" width="30" height="20" as="geometry" />
        </mxCell>
        <mxCell id="RPorrHLqXQpMC3Zhs603-40" value="2b" style="text;html=1;align=center;verticalAlign=middle;resizable=0;points=[];autosize=1;strokeColor=none;fillColor=none;" vertex="1" parent="1">
          <mxGeometry x="490" y="198" width="30" height="20" as="geometry" />
        </mxCell>
        <mxCell id="RPorrHLqXQpMC3Zhs603-41" value="3" style="text;html=1;align=center;verticalAlign=middle;resizable=0;points=[];autosize=1;strokeColor=none;fillColor=none;" vertex="1" parent="1">
          <mxGeometry x="315" y="468" width="20" height="20" as="geometry" />
        </mxCell>
        <mxCell id="RPorrHLqXQpMC3Zhs603-42" value="Verification of email with &lt;br&gt;the Firebase realtime database &lt;br&gt;- Firebase endpoint" style="text;html=1;align=center;verticalAlign=middle;resizable=0;points=[];autosize=1;strokeColor=none;fillColor=none;" vertex="1" parent="1">
          <mxGeometry x="505" y="343" width="180" height="50" as="geometry" />
        </mxCell>
        <mxCell id="RPorrHLqXQpMC3Zhs603-43" value="4a" style="text;html=1;align=center;verticalAlign=middle;resizable=0;points=[];autosize=1;strokeColor=none;fillColor=none;" vertex="1" parent="1">
          <mxGeometry x="470" y="353" width="30" height="20" as="geometry" />
        </mxCell>
        <mxCell id="RPorrHLqXQpMC3Zhs603-44" value="4b" style="text;html=1;align=center;verticalAlign=middle;resizable=0;points=[];autosize=1;strokeColor=none;fillColor=none;" vertex="1" parent="1">
          <mxGeometry x="340" y="558" width="30" height="20" as="geometry" />
        </mxCell>
        <mxCell id="RPorrHLqXQpMC3Zhs603-45" value="5" style="text;html=1;align=center;verticalAlign=middle;resizable=0;points=[];autosize=1;strokeColor=none;fillColor=none;" vertex="1" parent="1">
          <mxGeometry x="495" y="578" width="20" height="20" as="geometry" />
        </mxCell>
        <mxCell id="RPorrHLqXQpMC3Zhs603-46" value="6" style="text;html=1;align=center;verticalAlign=middle;resizable=0;points=[];autosize=1;strokeColor=none;fillColor=none;" vertex="1" parent="1">
          <mxGeometry x="525" y="668" width="20" height="20" as="geometry" />
        </mxCell>
      </root>
    </mxGraphModel>
  </diagram>
</mxfile>
